<svg width="300" height="200" viewBox="0 0 300 200" xmlns="http://www.w3.org/2000/svg">
  <defs>
    <linearGradient id="agriGrad" x1="0%" y1="0%" x2="100%" y2="100%">
      <stop offset="0%" style="stop-color:#10b981;stop-opacity:1" />
      <stop offset="100%" style="stop-color:#059669;stop-opacity:1" />
    </linearGradient>
  </defs>
  <rect width="300" height="200" fill="#f8fafc"/>
  
  <!-- Rice stalks -->
  <ellipse cx="60" cy="130" rx="3" ry="15" fill="url(#agriGrad)"/>
  <ellipse cx="70" cy="125" rx="3" ry="18" fill="url(#agriGrad)"/>
  <ellipse cx="80" cy="130" rx="3" ry="16" fill="url(#agriGrad)"/>
  
  <!-- Wheat -->
  <rect x="110" y="110" width="4" height="40" fill="#f59e0b"/>
  <ellipse cx="112" cy="105" rx="6" ry="12" fill="#f97316"/>
  
  <!-- Spice containers -->
  <rect x="150" y="100" width="20" height="30" fill="#1e3a8a" rx="2"/>
  <rect x="152" y="102" width="16" height="26" fill="#f97316" rx="1"/>
  
  <rect x="180" y="95" width="20" height="35" fill="#1e3a8a" rx="2"/>
  <rect x="182" y="97" width="16" height="31" fill="#dc2626" rx="1"/>
  
  <!-- Tea leaves -->
  <ellipse cx="230" cy="80" rx="8" ry="4" fill="#10b981"/>
  <ellipse cx="245" cy="85" rx="6" ry="3" fill="#059669"/>
  <ellipse cx="260" cy="82" rx="7" ry="4" fill="#10b981"/>
  
  <!-- Coffee beans -->
  <ellipse cx="50" cy="70" rx="4" ry="6" fill="#92400e"/>
  <ellipse cx="60" cy="75" rx="4" ry="6" fill="#92400e"/>
  <ellipse cx="70" cy="70" rx="4" ry="6" fill="#92400e"/>
  
  <!-- Dairy products -->
  <rect x="220" y="120" width="25" height="35" fill="white" stroke="#dbeafe" stroke-width="2" rx="3"/>
  <rect x="222" y="122" width="21" height="8" fill="#1e3a8a" rx="1"/>
</svg>