<svg width="300" height="200" viewBox="0 0 300 200" xmlns="http://www.w3.org/2000/svg">
  <defs>
    <linearGradient id="autoGrad" x1="0%" y1="0%" x2="100%" y2="100%">
      <stop offset="0%" style="stop-color:#1e3a8a;stop-opacity:1" />
      <stop offset="100%" style="stop-color:#3b82f6;stop-opacity:1" />
    </linearGradient>
  </defs>
  <rect width="300" height="200" fill="#f8fafc"/>
  
  <!-- Car body -->
  <rect x="80" y="120" width="140" height="30" fill="url(#autoGrad)" rx="5"/>
  <rect x="100" y="105" width="100" height="15" fill="url(#autoGrad)" rx="8"/>
  
  <!-- Windows -->
  <rect x="105" y="108" width="20" height="10" fill="#dbeafe" rx="2"/>
  <rect x="130" y="108" width="20" height="10" fill="#dbeafe" rx="2"/>
  <rect x="155" y="108" width="20" height="10" fill="#dbeafe" rx="2"/>
  <rect x="175" y="108" width="20" height="10" fill="#dbeafe" rx="2"/>
  
  <!-- Wheels -->
  <circle cx="100" cy="155" r="12" fill="#374151"/>
  <circle cx="100" cy="155" r="8" fill="#6b7280"/>
  <circle cx="100" cy="155" r="4" fill="#9ca3af"/>
  
  <circle cx="200" cy="155" r="12" fill="#374151"/>
  <circle cx="200" cy="155" r="8" fill="#6b7280"/>
  <circle cx="200" cy="155" r="4" fill="#9ca3af"/>
  
  <!-- Engine parts -->
  <rect x="40" y="80" width="25" height="15" fill="#f97316" rx="2"/>
  <rect x="42" y="82" width="21" height="11" fill="#fbbf24" rx="1"/>
  
  <!-- Gear -->
  <circle cx="250" cy="80" r="15" fill="#374151"/>
  <circle cx="250" cy="80" r="8" fill="#9ca3af"/>
  <rect x="247" y="68" width="6" height="3" fill="#374151"/>
  <rect x="247" y="89" width="6" height="3" fill="#374151"/>
  <rect x="241" y="77" width="3" height="6" fill="#374151"/>
  <rect x="256" y="77" width="3" height="6" fill="#374151"/>
  
  <!-- Exhaust pipe -->
  <rect x="220" y="140" width="30" height="4" fill="#6b7280" rx="2"/>
  <ellipse cx="252" cy="142" rx="3" ry="2" fill="#9ca3af"/>
</svg>