<svg width="300" height="200" viewBox="0 0 300 200" xmlns="http://www.w3.org/2000/svg">
  <defs>
    <linearGradient id="elecGrad" x1="0%" y1="0%" x2="100%" y2="100%">
      <stop offset="0%" style="stop-color:#1e3a8a;stop-opacity:1" />
      <stop offset="100%" style="stop-color:#3b82f6;stop-opacity:1" />
    </linearGradient>
  </defs>
  <rect width="300" height="200" fill="#f8fafc"/>
  
  <!-- Circuit board -->
  <rect x="50" y="80" width="80" height="60" fill="#10b981" rx="3"/>
  
  <!-- Electronic components -->
  <rect x="60" y="90" width="8" height="12" fill="#1e3a8a"/>
  <rect x="75" y="95" width="6" height="8" fill="#f97316"/>
  <rect x="90" y="88" width="10" height="15" fill="#1e3a8a"/>
  <rect x="110" y="92" width="8" height="10" fill="#f97316"/>
  
  <!-- Circuit traces -->
  <line x1="68" y1="102" x2="78" y2="102" stroke="#dbeafe" stroke-width="2"/>
  <line x1="83" y1="99" x2="98" y2="99" stroke="#dbeafe" stroke-width="2"/>
  <line x1="105" y1="98" x2="118" y2="98" stroke="#dbeafe" stroke-width="2"/>
  
  <!-- Microchip -->
  <rect x="160" y="70" width="40" height="40" fill="url(#elecGrad)" rx="2"/>
  <rect x="165" y="75" width="30" height="30" fill="#374151" rx="1"/>
  
  <!-- CPU pins -->
  <rect x="155" y="85" width="5" height="2" fill="#9ca3af"/>
  <rect x="155" y="90" width="5" height="2" fill="#9ca3af"/>
  <rect x="155" y="95" width="5" height="2" fill="#9ca3af"/>
  <rect x="200" y="85" width="5" height="2" fill="#9ca3af"/>
  <rect x="200" y="90" width="5" height="2" fill="#9ca3af"/>
  <rect x="200" y="95" width="5" height="2" fill="#9ca3af"/>
  
  <!-- LED -->
  <circle cx="230" cy="60" r="8" fill="#f97316"/>
  <circle cx="230" cy="60" r="5" fill="#fbbf24"/>
  
  <!-- Resistor -->
  <rect x="240" y="100" width="20" height="6" fill="#f59e0b"/>
  <rect x="243" y="98" width="3" height="10" fill="#dc2626"/>
  <rect x="248" y="98" width="3" height="10" fill="#dc2626"/>
  <rect x="253" y="98" width="3" height="10" fill="#dc2626"/>
</svg>