<svg width="300" height="200" viewBox="0 0 300 200" xmlns="http://www.w3.org/2000/svg">
  <defs>
    <linearGradient id="gemGrad" x1="0%" y1="0%" x2="100%" y2="100%">
      <stop offset="0%" style="stop-color:#f97316;stop-opacity:1" />
      <stop offset="50%" style="stop-color:#1e3a8a;stop-opacity:1" />
      <stop offset="100%" style="stop-color:#f97316;stop-opacity:1" />
    </linearGradient>
  </defs>
  <rect width="300" height="200" fill="#f8fafc"/>
  
  <!-- Diamond -->
  <polygon points="150,40 170,80 150,120 130,80" fill="url(#gemGrad)" stroke="#333" stroke-width="1"/>
  <polygon points="150,50 160,75 150,100 140,75" fill="#dbeafe"/>
  
  <!-- Emerald -->
  <rect x="60" y="90" width="30" height="20" fill="#10b981" rx="3"/>
  <rect x="65" y="95" width="20" height="10" fill="#6ee7b7" rx="2"/>
  
  <!-- Ruby -->
  <polygon points="220,70 240,85 220,100 200,85" fill="#dc2626"/>
  <polygon points="220,75 230,85 220,95 210,85" fill="#fca5a5"/>
  
  <!-- Pearl necklace -->
  <circle cx="80" cy="50" r="6" fill="white" stroke="#dbeafe" stroke-width="1"/>
  <circle cx="95" cy="48" r="6" fill="white" stroke="#dbeafe" stroke-width="1"/>
  <circle cx="110" cy="50" r="6" fill="white" stroke="#dbeafe" stroke-width="1"/>
  <circle cx="125" cy="48" r="6" fill="white" stroke="#dbeafe" stroke-width="1"/>
  
  <!-- Gold ring -->
  <ellipse cx="250" cy="130" rx="20" ry="15" fill="#f59e0b" stroke="#d97706" stroke-width="2"/>
  <ellipse cx="250" cy="130" rx="12" ry="8" fill="none" stroke="#d97706" stroke-width="2"/>
  <circle cx="250" cy="125" r="4" fill="#dc2626"/>
</svg>