<svg width="300" height="200" viewBox="0 0 300 200" xmlns="http://www.w3.org/2000/svg">
  <defs>
    <linearGradient id="indGrad" x1="0%" y1="0%" x2="100%" y2="100%">
      <stop offset="0%" style="stop-color:#374151;stop-opacity:1" />
      <stop offset="100%" style="stop-color:#6b7280;stop-opacity:1" />
    </linearGradient>
  </defs>
  <rect width="300" height="200" fill="#f8fafc"/>
  
  <!-- Factory building -->
  <rect x="50" y="100" width="80" height="50" fill="url(#indGrad)"/>
  <rect x="60" y="110" width="15" height="20" fill="#dbeafe"/>
  <rect x="85" y="110" width="15" height="20" fill="#dbeafe"/>
  <rect x="110" y="110" width="15" height="20" fill="#dbeafe"/>
  
  <!-- Chimney with smoke -->
  <rect x="140" y="70" width="10" height="30" fill="#374151"/>
  <ellipse cx="150" cy="60" rx="8" ry="5" fill="#9ca3af"/>
  <ellipse cx="155" cy="50" rx="6" ry="4" fill="#d1d5db"/>
  <ellipse cx="160" cy="40" rx="4" ry="3" fill="#e5e7eb"/>
  
  <!-- Gears -->
  <circle cx="180" cy="100" r="20" fill="#f97316"/>
  <circle cx="180" cy="100" r="12" fill="white"/>
  <rect x="175" y="85" width="10" height="4" fill="#f97316"/>
  <rect x="175" y="111" width="10" height="4" fill="#f97316"/>
  <rect x="168" y="95" width="4" height="10" fill="#f97316"/>
  <rect x="192" y="95" width="4" height="10" fill="#f97316"/>
  
  <!-- Smaller gear -->
  <circle cx="220" cy="120" r="15" fill="#1e3a8a"/>
  <circle cx="220" cy="120" r="8" fill="white"/>
  <rect x="217" y="108" width="6" height="3" fill="#1e3a8a"/>
  <rect x="217" y="129" width="6" height="3" fill="#1e3a8a"/>
  <rect x="211" y="117" width="3" height="6" fill="#1e3a8a"/>
  <rect x="226" y="117" width="3" height="6" fill="#1e3a8a"/>
  
  <!-- Conveyor belt -->
  <rect x="40" y="160" width="220" height="8" fill="#374151"/>
  <circle cx="50" cy="164" r="6" fill="#6b7280"/>
  <circle cx="250" cy="164" r="6" fill="#6b7280"/>
</svg>