<svg width="300" height="200" viewBox="0 0 300 200" xmlns="http://www.w3.org/2000/svg">
  <defs>
    <linearGradient id="metalGrad" x1="0%" y1="0%" x2="100%" y2="100%">
      <stop offset="0%" style="stop-color:#374151;stop-opacity:1" />
      <stop offset="100%" style="stop-color:#9ca3af;stop-opacity:1" />
    </linearGradient>
  </defs>
  <rect width="300" height="200" fill="#f8fafc"/>
  
  <!-- Steel beams -->
  <rect x="50" y="100" width="80" height="8" fill="url(#metalGrad)"/>
  <rect x="50" y="120" width="80" height="8" fill="url(#metalGrad)"/>
  <rect x="50" y="140" width="80" height="8" fill="url(#metalGrad)"/>
  
  <!-- Metal pipes -->
  <ellipse cx="180" cy="100" rx="40" ry="6" fill="#6b7280"/>
  <ellipse cx="180" cy="120" rx="35" ry="5" fill="#9ca3af"/>
  <ellipse cx="180" cy="140" rx="30" ry="4" fill="#6b7280"/>
  
  <!-- Metal sheets -->
  <rect x="220" y="80" width="60" height="2" fill="#374151"/>
  <rect x="220" y="90" width="60" height="2" fill="#6b7280"/>
  <rect x="220" y="100" width="60" height="2" fill="#374151"/>
  <rect x="220" y="110" width="60" height="2" fill="#6b7280"/>
  
  <!-- Aluminum ingots -->
  <rect x="60" y="60" width="20" height="30" fill="#e5e7eb" rx="2"/>
  <rect x="90" y="65" width="20" height="25" fill="#d1d5db" rx="2"/>
  <rect x="120" y="62" width="20" height="28" fill="#e5e7eb" rx="2"/>
  
  <!-- Copper wire coil -->
  <circle cx="240" cy="50" r="15" fill="none" stroke="#f97316" stroke-width="3"/>
  <circle cx="240" cy="50" r="10" fill="none" stroke="#ea580c" stroke-width="2"/>
  <circle cx="240" cy="50" r="5" fill="none" stroke="#f97316" stroke-width="1"/>
</svg>