<svg width="300" height="200" viewBox="0 0 300 200" xmlns="http://www.w3.org/2000/svg">
  <defs>
    <linearGradient id="textileGrad" x1="0%" y1="0%" x2="100%" y2="100%">
      <stop offset="0%" style="stop-color:#f97316;stop-opacity:1" />
      <stop offset="100%" style="stop-color:#ea580c;stop-opacity:1" />
    </linearGradient>
  </defs>
  <rect width="300" height="200" fill="#f8fafc"/>
  
  <!-- Fabric rolls -->
  <ellipse cx="80" cy="100" rx="30" ry="8" fill="#1e3a8a"/>
  <rect x="50" y="92" width="60" height="16" fill="url(#textileGrad)"/>
  
  <!-- Weaving pattern -->
  <rect x="130" y="50" width="4" height="100" fill="#1e3a8a"/>
  <rect x="140" y="50" width="4" height="100" fill="#f97316"/>
  <rect x="150" y="50" width="4" height="100" fill="#1e3a8a"/>
  <rect x="160" y="50" width="4" height="100" fill="#f97316"/>
  <rect x="170" y="50" width="4" height="100" fill="#1e3a8a"/>
  
  <!-- Horizontal threads -->
  <rect x="125" y="60" width="55" height="3" fill="#dbeafe"/>
  <rect x="125" y="70" width="55" height="3" fill="#dbeafe"/>
  <rect x="125" y="80" width="55" height="3" fill="#dbeafe"/>
  <rect x="125" y="90" width="55" height="3" fill="#dbeafe"/>
  <rect x="125" y="100" width="55" height="3" fill="#dbeafe"/>
  
  <!-- Sewing needle and thread -->
  <line x1="220" y1="70" x2="270" y2="90" stroke="#666" stroke-width="2"/>
  <circle cx="270" cy="90" r="3" fill="#f97316"/>
  
  <!-- Cotton bolls -->
  <circle cx="50" cy="50" r="12" fill="white" stroke="#dbeafe" stroke-width="2"/>
  <circle cx="250" cy="40" r="10" fill="white" stroke="#dbeafe" stroke-width="2"/>
</svg>